<svg xmlns="http://www.w3.org/2000/svg" viewBox="0 0 141.91 250.21"><defs><style>.cls-1{fill:#1b4146;}.cls-2,.cls-3,.cls-4{fill:#224d50;}.cls-2,.cls-3,.cls-4,.cls-5{stroke:#253939;stroke-miterlimit:10;}.cls-2,.cls-5{stroke-width:1.37px;}.cls-3{stroke-width:1.64px;}.cls-4{stroke-width:2.63px;}.cls-5{fill:#243838;}</style></defs><title>rocket</title><g id="rocket"><path class="cls-1" d="M84.3,42.29S105.19,2.13,126.52,4.52c19.2,11.44,1.29,60.09,1.29,60.09s9-10.73,9.91-8.55c1.12,2.6.74,6.76-1.07,15.19-5.87,27.26-23.09,59.41-29.69,74.43,0,0,11.46,13.43,12.05,20.56s-3.46,9.67-3.46,9.67L96.24,169.1,86.17,192l-1.55,12.75-4.06-.5-2.11,3.82-.61-.09s3.79,15-21,30.45c0,0-6.86-25.33,9-36.53l-1,.19,1.46-4.28-2.73-2,7.75-10,9.35-21.3-3.08-1-5.85,14.15-2.22-.38-2.43,6L65,182.92s4,31.12-42.49,62.19c0,0-15.17-43.19,17.85-73.05l-1.55-1.19,2.69-5.68-1.69-1.56,6.44-13.79-3.92-2.29-9.64,21.3-1.44,12.5-3.92-.64-2.26,4-.8-.12s2.68,16.47-21,30.51c0,0-6.8-24.12,9.23-35.64l-1-.73,1.38-4.14s-2.95-2.08-3.11-2.66,8.21-9.51,8.21-9.51l10.18-23.2-16.69-9s-1.84,1.67,3.83-7.46c2.43-3.92,12.2-5.69,22.51-6.57,0,0,30.83-80.1,45.89-83.52C83.6,32.65,85.13,35.27,84.3,42.29Z"/><path class="cls-2" d="M27.43,174.28c-1.55-18.65-10.94-3.21-10.94-3.21S3.1,181.46,8.17,204.28C8.17,204.28,29,192.93,27.43,174.28Z"/><path class="cls-2" d="M77.06,196.48c-1.56-18.65-11-3.22-11-3.22s-13.39,10.39-8.32,33.21C57.79,226.47,78.61,215.12,77.06,196.48Z"/><path class="cls-2" d="M45.18,162s-27.93,24.19-19.13,70.18c0,0,38.11-25,39-60.71Z"/><path class="cls-2" d="M15.78,170.5a24.37,24.37,0,0,0,12.65,5.55l3-5.46-13.71-6Z"/><path class="cls-2" d="M65.39,192.27a24.44,24.44,0,0,0,12.66,5.55l3-5.46-13.7-6Z"/><path class="cls-2" d="M14.16,164.19a35.91,35.91,0,0,0,7.15,5c1,.53,2.06,1,3.13,1.45A35.43,35.43,0,0,0,34.17,173l1.34-11.6,1.16-2.65,5.17-11.79L45,139.81l4.93-11.24-6.18-2.71-2.17-1-5.36-2.35L31.25,133.8l-3.12,7.11L23,152.69l-1.16,2.65Z"/><path class="cls-2" d="M49.08,122.16l11.25,4.94,9,3.93,6.88,3,13,5.73,1.39.61,1.5-3.42,6.25-14.25,11.7-26.66,2.15-4.9,12-27.36a80.46,80.46,0,0,0,5.95-20.6,77.56,77.56,0,0,0,.72-15.76c0-.5-.07-1-.11-1.47a39.68,39.68,0,0,0-.72-4.85c-.1-.46-.21-.91-.32-1.34a23.59,23.59,0,0,0-4.09-9,5.29,5.29,0,0,0-3-2,11.17,11.17,0,0,0-4.5.28,29.13,29.13,0,0,0-8.06,3.38,42.2,42.2,0,0,0-4.06,2.75c-.38.3-.77.6-1.16.92a77.81,77.81,0,0,0-11.1,11.2A80.4,80.4,0,0,0,82.68,45.58l-12,27.35-2.15,4.91-11.7,26.65-6.25,14.25Z"/><path class="cls-2" d="M81.88,47.4A194.45,194.45,0,0,1,106,56.56c1.9.87,3.78,1.77,5.66,2.71q6,3,11.74,6.35l.47-1.08-.16-.1Q118,61,112.14,58q-2.77-1.41-5.6-2.7a173.68,173.68,0,0,0-24-9l-.18-.06Z"/><path class="cls-2" d="M70.83,72.59A192.93,192.93,0,0,1,95,81.76c1.89.87,3.78,1.77,5.65,2.7q6,3,11.74,6.35l.48-1.08-.16-.1q-5.7-3.42-11.6-6.4-2.78-1.41-5.6-2.7a173.68,173.68,0,0,0-24-9l-.19-.06Z"/><path class="cls-2" d="M53.11,141.84l3.75,1.65,6.53,2.86,9.22,4.05,2.54,1.12,10.6-24.17,19.08-43.48a55.82,55.82,0,0,0,4.63-18.39,37,37,0,0,0,0-6.23c0-.43-.1-.84-.17-1.25a13.82,13.82,0,0,0-.35-1.62c-.55-2-1.6-3.93-3.64-4.59a5.85,5.85,0,0,0-4,.32,12.88,12.88,0,0,0-2.47,1.31q-.51.33-1,.72a35.83,35.83,0,0,0-4.6,4.2A56,56,0,0,0,82.79,74.2L63.71,117.68Z"/><path class="cls-3" d="M32.46,130.1l7.45,3.27,7,3,9.86-22.48L69.55,84.7l7-15.93a82.54,82.54,0,0,0,5.62-17.95c.11-.58.22-1.22.33-1.89a75.82,75.82,0,0,0,1-10.86c0-1.71-.19-2.93-.61-3.19l0,0c-.45-.2-1.49.5-2.81,1.69a76.28,76.28,0,0,0-7.32,8.09c-.42.53-.81,1-1.17,1.52a83.67,83.67,0,0,0-9.4,16.3l-7,15.93L42.32,107.63Z"/><path class="cls-2" d="M63.78,186a36.13,36.13,0,0,0,7.14,5c1,.53,2.07,1,3.14,1.45a35.43,35.43,0,0,0,9.73,2.34l1.33-11.6,1.17-2.65,5.17-11.79,3.12-7.11,4.93-11.24-6.18-2.71-2.17-.95-5.36-2.35-4.93,11.24-3.12,7.11-5.17,11.78-1.16,2.65Z"/><path class="cls-3" d="M82.08,151.87l7.45,3.27,7,3.05,9.86-22.48,12.83-29.24,7-15.93a83.09,83.09,0,0,0,5.62-18q.16-.89.33-1.89a74.31,74.31,0,0,0,1-10.86c0-1.72-.19-2.93-.6-3.19l-.05,0c-.44-.2-1.48.5-2.8,1.69a76.28,76.28,0,0,0-7.32,8.09c-.42.53-.81,1-1.17,1.52a83.17,83.17,0,0,0-9.4,16.3l-7,15.93L91.94,129.4Z"/><path class="cls-4" d="M15.75,125.45l2.33,1.31,8,4.5,8.7,4.88L37,137.36l14.53,8.16,6-13.65c1-2.32,1.17-2.75,2.18-5.06,1.26-2.87,3.38-7.62,4.64-10.49L79.82,81s-.11.21-.32.58l-.55,1-.72,1.26-.21.37c-4.25,7.39-14.91,25.17-19.94,26.69-1.95.59-6,.84-10.81,1.13-4.27.26-9.15.54-13.66,1.1a46,46,0,0,0-10.11,2.2c-2.25.85-3.94,1.94-4.76,3.36C14.42,126.12,15.75,125.45,15.75,125.45Z"/><path class="cls-4" d="M112.51,167.91l-2.54-.83-8.73-2.85-9.49-3.1-2.37-.77-15.84-5.17,6-13.65c1-2.32,1.23-2.72,2.24-5,1.26-2.86,3.32-7.64,4.58-10.51l15.51-35.36-.2.63-.35,1.07c-.13.4-.28.86-.44,1.38-.05.14-.09.27-.13.41-2.56,8.13-8.43,28-6.14,32.74.89,1.84,3.45,5,6.49,8.72,2.7,3.32,5.8,7.1,8.44,10.8a46.16,46.16,0,0,1,5.23,8.92c.89,2.23,1.23,4.22.74,5.78C112.92,169.34,112.51,167.91,112.51,167.91Z"/><path class="cls-2" d="M41.19,163.23q.72.57,1.44,1.11a55.82,55.82,0,0,0,10.46,6.18c1.39.63,2.81,1.2,4.25,1.7s2.63.88,4,1.24a56.22,56.22,0,0,0,6.17,1.3l5-12.45L76,153.59c-.77-.77-1.58-1.5-2.42-2.2a37.49,37.49,0,0,0-9.52-5.87A38.73,38.73,0,0,0,51,142.59l-4,8.5Z"/><path class="cls-5" d="M43,154.43l1.12.87a62,62,0,0,0,17.11,9.28c1.47.52,3,1,4.5,1.4a65,65,0,0,0,7,1.47l2.73-6.77L82,144.45l.37-.91a46.76,46.76,0,0,0-5.28-4.48,43,43,0,0,0-3.8-2.45,42,42,0,0,0-17.82-5.39l-1.4-.1-.42.89-7.5,15.82Z"/><path class="cls-2" d="M42.12,156.51c.37.3.74.59,1.12.87a62.16,62.16,0,0,0,17.1,9.29c1.48.52,3,1,4.5,1.39a61.37,61.37,0,0,0,7,1.47l2.74-6.76,6.56-16.24.37-.91a45.89,45.89,0,0,0-5.29-4.47,41.69,41.69,0,0,0-3.8-2.46,42.25,42.25,0,0,0-17.82-5.39c-.46,0-.93-.07-1.39-.09l-.42.88-7.5,15.82Z"/><path class="cls-5" d="M29.29,138.27a36.17,36.17,0,0,1,9.81,3.59,37.66,37.66,0,0,1,3.9,2.42l.69-1.58a33.76,33.76,0,0,0-3.88-2.46A34.34,34.34,0,0,0,30,136.69Z"/><path class="cls-5" d="M78.91,160a36.17,36.17,0,0,1,9.81,3.59,38.75,38.75,0,0,1,3.9,2.42l.69-1.58a34.53,34.53,0,0,0-13.71-6Z"/><path class="cls-5" d="M25.53,146.83a36.26,36.26,0,0,1,9.81,3.59,37.66,37.66,0,0,1,3.9,2.42l.7-1.58a36.27,36.27,0,0,0-3.89-2.46,34.24,34.24,0,0,0-9.82-3.55Z"/><path class="cls-5" d="M75.15,168.6A36.51,36.51,0,0,1,85,172.19a37.66,37.66,0,0,1,3.9,2.42l.69-1.58a35.18,35.18,0,0,0-3.88-2.46A34.24,34.24,0,0,0,75.85,167Z"/><path class="cls-5" d="M21.9,155.11a36.36,36.36,0,0,1,9.81,3.58,37.76,37.76,0,0,1,3.9,2.43l.69-1.58a32.45,32.45,0,0,0-3.88-2.46,34.26,34.26,0,0,0-9.82-3.56Z"/><path class="cls-5" d="M71.52,176.88a36.49,36.49,0,0,1,9.81,3.58,37.76,37.76,0,0,1,3.9,2.43l.69-1.58A33.84,33.84,0,0,0,82,178.84a34.65,34.65,0,0,0-9.82-3.55Z"/><path class="cls-5" d="M14.6,164.64a3.62,3.62,0,0,1-.43-.46l1.52-1.76a39.78,39.78,0,0,0,8.81,5.4,40.19,40.19,0,0,0,9.94,2.83L34.17,173h0s-.22,0-.63,0a29.9,29.9,0,0,1-10.09-2.75A29.84,29.84,0,0,1,14.6,164.64Z"/><path class="cls-5" d="M64.21,186.41s-.45-.43-.42-.46l1.51-1.76a38,38,0,0,0,18.75,8.23l-.26,2.31h0s-.22,0-.63,0A29.9,29.9,0,0,1,73.07,192,30,30,0,0,1,64.21,186.41Z"/></g></svg>