<svg xmlns="http://www.w3.org/2000/svg" viewBox="0 0 516.6 44.69"><defs><style>.cls-1{fill:#fff;}</style></defs><title>sailing</title><g id="sailing"><path class="cls-1" d="M26.64,1.4,26.54,10,9.63,9.8l-.09,8.59,8.35.09A8.45,8.45,0,0,1,23.94,21a8,8,0,0,1,2.42,6l-.1,8.59a7.94,7.94,0,0,1-2.55,6,9.22,9.22,0,0,1-6.1,2.53L.7,43.87l.09-8.59,16.92.19.09-8.6-8.36-.09a8.46,8.46,0,0,1-6-2.46A8,8,0,0,1,1,18.3l.09-8.59a8,8,0,0,1,2.56-6A9.2,9.2,0,0,1,9.72,1.21Z"/><path class="cls-1" d="M99.62,1.21a9.22,9.22,0,0,1,6,2.66,8,8,0,0,1,2.43,6l-.38,34.16L99.15,44l.19-17.18L91,26.69,90.8,43.87l-8.56-.1.38-34.16a8,8,0,0,1,2.55-6,9.27,9.27,0,0,1,6.1-2.53ZM91.08,18.29l8.35.1.1-8.59-8.36-.1Z"/><path class="cls-1" d="M254.4,1,254,35.18l16.92.19-.1,8.59-25.47-.28L245.84.92Z"/><path class="cls-1" d="M348.44,1.06l-.09,8.59L344,9.6l-.28,25.58,4.38,0-.1,8.59-17.11-.19L331,35l4.38.05.28-25.58-4.38,0,.1-8.59Z"/><path class="cls-1" d="M185.45,1.16l-.09,8.59L181,9.7l-.28,25.57,4.38,0-.1,8.59-17.11-.19.09-8.59,4.38,0,.28-25.57-4.38,0,.1-8.59Z"/><path class="cls-1" d="M417.2.82l8.12,21.48L425.56.92l8.55.09-.47,42.76-8.55-.1L417,22.2l-.23,21.38-8.55-.1L408.65.73Z"/><path class="cls-1" d="M515.56.92l-.09,8.59-16.91-.19-.29,25.57,8.36.1.19-17,8.55.1-.18,17a8,8,0,0,1-2.56,6,9.18,9.18,0,0,1-6.09,2.53l-8.36-.1a9.22,9.22,0,0,1-6-2.66,8,8,0,0,1-2.42-6L490,9.23a8,8,0,0,1,2.55-6,9.22,9.22,0,0,1,6.1-2.53Z"/></g></svg>