<svg xmlns="http://www.w3.org/2000/svg" viewBox="0 0 956.1 224.08"><defs><style>.cls-1{fill:#fff;}</style></defs><title>4word </title><g id="word"><path class="cls-1" d="M720.55,90.8c4.38-7.53-1.82-16-11.91-16.24l-14.23-.36c-4-.1-6.51-3.48-4.76-6.49L724.58,7.57,702.29,7,668.05,65.94c-3.73,6.42,1.55,13.62,10.15,13.84l4.37.11,8.44.22c6.21.15,10,5.35,7.33,10L651.45,170.8l-7.25-5.51a4.8,4.8,0,0,1-1.41-6.42l39.83-68.56-20.41-.52-40.43,69.6c-3.82,6.58-2.14,14.23,4.17,19l14.63,11.1-15,25.83,22.3.56,8.41-14.47,20.18,15.32,18.61-12.86-27.91-21.19Z"/><path class="cls-1" d="M605.87,147.35l-37.59-1.46-5.59,10.6,35.18,1.37a4.08,4.08,0,0,1,3.29,1.71c-3.18,3.8-6.54,7.15-8.3,7.08l-41.29-1.6,4.38-8.57,10.34-19.66,43.38,1.69c8.25.33,15.84-3.53,19.07-9.69l21.2-39.51c3.74-7.12-2.48-15.16-12-15.53L599,72.27l6.83-13.35C623.15,24.9,643.59,3.85,669,4.49l-35.3-.88c-14-.35-28.69,11-38.25,29.63L529.72,161.88c-17.28,34-44,54.9-69.42,54.27l41.59,1c14,.35,28.65-11.06,38.19-29.67l5.26-10.28L590.19,179c7.19.28,13.81-3.08,16.63-8.45l6.87-13.09C616.12,152.82,612.07,147.59,605.87,147.35Zm21.72-57.41c5.79.22,9.56,5.09,7.29,9.41L623,121.24c-1.7,3.24-5.7,5.27-10,5.1l-40.73-1.58,18.54-36.25Z"/><path class="cls-1" d="M914.25,90.27c4.79.12,9.28-3.41,11.68-9.2l16.54-40c4.34-10.57,6.78-17.19,15.51-17l-22.9-.57c-4.79-.12-9.29,3.4-11.7,9.19l-16.53,40c-4.33,10.57-9.35,17.13-18.08,16.91Z"/><path class="cls-1" d="M956.1,105.39l3.11-5.26-81.1-2,2-5.07c3.7-9.18-4.59-18.78-16.51-19.07L821.35,72.9l4.2-10.16c14.06-34.27,37-55.35,65.25-54.64L854,7.18c-15.54-.39-30.13,11-37.94,29.79l-36,87-22.19-.56-3.12,5.26,23.13.58-15.41,37.25c-14,34.27-30.31,55.52-58.58,54.81l30.16.76c15.51.39,30.08-11.08,37.87-29.83l25.86-62.49,11.1.28L801,149.15c-4.34,10.57-9.36,17.13-18.08,16.91l25.47.64c4.79.12,9.29-3.42,11.69-9.2l11.12-26.88,10.45.26-31.36,79.6c-1.49,3.69-5.78,6.13-10.57,6l-17.91-.44-16,6.84L812,224.62c9.47.24,18-4.59,20.91-11.9L876,103.39ZM833.42,125.33l3.23-7.8c4.33-10.57,6.78-17.19,15.51-17l-22.9-.57c-4.79-.12-9.3,3.41-11.7,9.19l-6.45,15.6L800,124.49l14.52-35.07,31.93.8c5.57.13,9.45,4.63,7.73,8.94l-10.41,26.43Z"/><path class="cls-1" d="M960.31,176.36c-6.66-.17-8.55,4.89-11.87,13l-12.63,30.55a11.17,11.17,0,0,1-6.23,6.6,7,7,0,0,1-2.68.43l-25.16-.63c-9.38-.23-15.89-7.75-13-15l33.87-83.8-26.45-.64-39.75,98.33-18.77-.47,42.9-106.14,18.78.46,26.43.68h0l18.78.47-32.34,80A14.67,14.67,0,0,0,913.83,214c1.68,2.52,6.23,2.31,7.36-.41,0,0,0,0,0-.06l12.65-30.58c1.82-4.38,5.28-7.1,8.94-7Z"/><path class="cls-1" d="M300.9,101.71l39.89-67.23A57.21,57.21,0,0,1,392,6.43l-35.64-.89a32.29,32.29,0,0,0-28.6,15.31L287.89,88.09c-10.45,17.78-30.4,28.57-51.85,28l36.31.91A32.19,32.19,0,0,0,300.9,101.71Z"/><path class="cls-1" d="M389.48,146.28l-17.75-.44,16.47-26.5-16.27-.41-16.47,26.5-26.53-.66,15.85-23.91,5.6.15c9.26.26,20.41-5.13,24.89-12.05l6.94-10.68,10.29.29,4-6.1-10.29-.29,9.3-14.34,10.53.3,4-6.09-10.53-.3,8-12.27c4-6.13.55-11.29-7.65-11.52l-21.15-.6,1-1.72C389,29.71,404.43,20,423.67,20.46l-25-.62a28.91,28.91,0,0,0-25.62,13.71l-8,13.43-19.85-.56-4.07,6.27,20.19.57L351.21,70.39l-21.14-.6-4,6.1,21.47.6-8.51,14.36-22.49-.63-4,6.09,22.77.64c-4.46,7-9.36,12.6-15.37,16.43l-17.92-.5-4,6.21a2.43,2.43,0,0,0-.27,0h.27l-.28.44,30.85.87-14.91,24-18.14-.46-4,6.46,18.14.46L304,160c-6.46,10.4-7.85,22.3-4.12,32.91l-23.95,12.26,1.45,13.73L306,204.28l9.78,15.58,18.21-13.23-8.74-12.35a107.14,107.14,0,0,0,39.18-36.61l3.33-5.37,17.75.44ZM374.87,53.64l5.22.14c4.76.14,6.75,3.13,4.44,6.68l-6.92,10.67-12.9-.36ZM361.08,76.87l12.57.36-9.3,14.33-11.79-.33Zm-17.2,29,5.06-8.53,11.45.32L354,107.59c-2.38,3.66-8.28,6.52-13.19,6.38l-4.14-.12A27.57,27.57,0,0,0,343.88,105.87Zm-26.26,77.71-1-1.42c-4-5.59-3.94-12.87.06-18.91l8-12,26.67.67A104.34,104.34,0,0,1,317.62,183.58Z"/><path class="cls-1" d="M470.51,76.55l-14.22-.36c-4-.1-6.52-3.48-4.76-6.49L486.46,9.56,464.16,9,429.93,67.93c-3.73,6.42,1.54,13.62,10.15,13.84l4.37.11,8.44.21c6.21.16,10,5.36,7.32,10l-46.88,80.7-7.25-5.5a4.79,4.79,0,0,1-1.41-6.42L444.5,92.3l-20.41-.52-40.44,69.6c-3.82,6.58-2.14,14.23,4.18,19l14.62,11.1-15,25.83,22.3.56,8.41-14.47,20.18,15.32L457,205.89,429,184.7l53.4-91.91C486.81,85.25,480.61,76.81,470.51,76.55Z"/><path class="cls-1" d="M160.31,167.58,209,168.79l8.64-14-48-1.2,13.88-21,45,1.13,8.64-14-44.37-1.11,17.72-26.75c7.92-12-2.51-26.67-19.28-27.16l-69.91-2,20.85-30.21C155.69,12.61,174.74.48,202.71,1.18L156.28,0c-15.36-.39-29.67,6.12-37.2,17L67.43,91.88C53.91,111.69,28,123.65,0,123l53.34,1.34c15.34.38,29.62-6.15,37.13-17L107,83.4l58.7,1.72c6.57.19,10.67,5.95,7.56,10.64l-14.55,22-58.76-1.47-8.64,14,58.12,1.46L135.51,152.7l-55.14-1.38-8.64,14,54.49,1.36-18.15,27.41-68.33-1.7L27,212.6l203.41,5.09,12.79-20.18-101-2.52Z"/></g></svg>