<?xml version="1.0" encoding="UTF-8"?><svg id="_圖層_2" xmlns="http://www.w3.org/2000/svg" viewBox="0 0 38.92 35.42"><defs><style>.cls-1{fill:#fff;}.cls-2{fill:#fefeff;}.cls-3{fill:#cddcde;}.cls-4{fill:#3e7982;}</style></defs><g id="_圖層_2-2"><path class="cls-3" d="M37.21,0c2.7,5.42-.7,4.58-2.68,4.64-7.53,.25-15.07,.3-22.61,.42-3.24-1.14-6.77,.87-11.92-3.23C13.61-1.14,25.51,1.44,37.21,0Z"/><path class="cls-1" d="M8.76,15.64h29.32c0,1.34,.01,2.68,.02,4.02-11.7,0-23.4,.06-35.1-.08-1.35-.02-1.35-.53,1.01-3.94,1.58,0,3.17,0,4.75,0Z"/><path class="cls-4" d="M.97,33.19c12.16-4.98,24.52-2.15,36.82-1.6,1.05,.05,1.31,1.94,1.01,3.47-9.49-2.41-19.06-.44-28.59-1.1-3.08-.21-6.22,.76-9.24-.77Z"/><path class="cls-2" d="M.97,33.19c11.63-1.98,23.3-.5,34.94-.8,1.36-.03,2.55,.51,2.88,2.68-10.97,.12-21.94,.25-32.91,.33-1.79,.01-3.73,.4-4.92-2.2Z"/></g></svg>