<svg xmlns="http://www.w3.org/2000/svg" viewBox="0 0 53.86 53.86"><defs><style>.cls-1{fill:#fff;opacity:0.85;}</style></defs><title>new</title><g id="圖層_2" data-name="圖層 2"><path class="cls-1" d="M2.5,34.51c-1.21-17.95,2.12-24,17.83-32.38,7.16-.53,14.22-.26,20.77,4.52A26,26,0,0,1,51.28,31.17c-1.54,9.26-10.05,19.35-17,20.24-1.66.21-3.53.41-3.36-2.64.26-4.7-2.37-11.4,1.64-13.69,5.92-3.37,8.19-4.13.31-8.35-3.69-2-2.77-6.31,1.2-7.79,1.84-.69,4-.85,3.39-4.38-.58-3.15-3-2.64-4.68-2.59-5,.16-10.12,1.32-9.68,10.33.35,7.09-6.37,2.76-6.37,8.74s6.58.94,6.2,7.31C22.68,42.6,24.3,48,22,50.83s-5.52-.44-8.11-1.92C8.92,46,5.27,40.86,2.5,34.51Z"/></g></svg>