<?xml version="1.0" encoding="UTF-8"?><svg id="_圖層_2" xmlns="http://www.w3.org/2000/svg" viewBox="0 0 223.1 237.77"><defs><style>.cls-1{fill:#d5bd55;}.cls-2{opacity:.75;}</style></defs><g id="_圖層_3"><g class="cls-2"><polygon class="cls-1" points="0 25.03 0 8.62 8.37 .25 71.1 .25 71.1 1.78 46.83 1.78 43.41 6.57 12.48 6.57 2.73 16.65 2.73 25.03 0 25.03"/><polygon class="cls-1" points="223.1 24.78 223.1 8.37 214.73 0 152.01 0 152.01 1.54 176.28 1.54 179.69 6.32 210.63 6.32 220.37 16.41 220.37 24.78 223.1 24.78"/><polygon class="cls-1" points="41.23 14.47 48.84 7.64 81.61 8.64 88.66 13.56 96.04 13.82 103.42 16.76 106.44 16.89 95.94 12.59 88.84 12.39 81.53 7.13 73.56 6.88 70.71 3.77 48.14 3.77 39.15 14.47 41.23 14.47"/><polygon class="cls-1" points="181.97 14.47 174.36 7.64 141.59 8.64 134.54 13.56 127.16 13.82 119.78 16.76 116.76 16.89 127.26 12.59 134.36 12.39 141.67 7.13 149.64 6.88 152.49 3.77 175.06 3.77 184.05 14.47 181.97 14.47"/><polygon class="cls-1" points="92.15 0 89.64 4.24 99.57 4.24 102.08 7.15 120.36 7.15 121.81 4.37 133.47 4.37 129.1 0 92.15 0"/><polygon class="cls-1" points="0 212.99 0 229.39 8.37 237.77 71.1 237.77 71.1 236.23 46.83 236.23 43.41 231.45 12.48 231.45 2.73 221.36 2.73 212.99 0 212.99"/><polygon class="cls-1" points="2.39 71.19 19.14 39.58 17.43 34.2 0 71.19 0 170.75 17.43 205.06 19.14 201.69 1.58 169.15 1.2 148.22 6.2 139.39 6.2 102.81 2.16 94.86 2.39 71.19"/><polygon class="cls-1" points="223.1 212.74 223.1 229.15 214.73 237.52 152.01 237.52 152.01 235.98 176.28 235.98 179.69 231.2 210.63 231.2 220.37 221.12 220.37 212.74 223.1 212.74"/><polygon class="cls-1" points="220.71 166.82 203.96 198.44 205.67 203.82 223.1 166.82 223.1 67.26 205.67 32.96 203.96 36.32 221.52 68.86 221.91 89.8 216.91 98.63 216.91 135.2 220.95 143.15 220.71 166.82"/><polygon class="cls-1" points="181.92 223.05 174.31 229.89 141.54 228.88 134.49 223.96 127.12 223.7 119.73 220.76 116.71 220.64 127.21 224.94 134.32 225.13 141.62 230.39 149.59 230.65 152.44 233.75 175.01 233.75 184 223.05 181.92 223.05"/><polygon class="cls-1" points="41.18 223.05 48.8 229.89 81.56 228.88 88.61 223.96 95.99 223.7 103.37 220.76 106.39 220.64 95.9 224.94 88.79 225.13 81.48 230.39 73.51 230.65 70.66 233.75 48.09 233.75 39.1 223.05 41.18 223.05"/><polygon class="cls-1" points="131 237.52 133.51 233.29 123.58 233.29 121.07 230.37 102.79 230.37 101.34 233.15 89.69 233.15 94.06 237.52 131 237.52"/></g></g></svg>