<?xml version="1.0" encoding="UTF-8"?><svg id="_圖層_2" xmlns="http://www.w3.org/2000/svg" viewBox="0 0 89.96 35.25"><defs><style>.cls-1{fill:#f3f7f8;}.cls-2{fill:#f7f9fa;}.cls-3{fill:#f2f6f7;}.cls-4{fill:#f8fbfb;}.cls-5{fill:#e9eff0;}.cls-6{fill:#fcfdfd;}.cls-7{fill:#fdfefe;}</style></defs><g id="_圖層_2-2"><path class="cls-3" d="M34.99,33.13c-1.58,0-3.16,0-4.73,0-3.32-9.56-2.87-20.41-.88-29.21,1.62-7.14,8.54-2.27,13.85-2.55-2.95,7.41-10.69-1.48-10.84,8.33-.14,8.96,7.53,1.48,9.54,6.87-2.31,5.15-9.75-2.6-9.58,6.96,.17,10.05,7.86,1.12,10.5,7.26-2.22,3.17-5.39,1.11-7.86,2.35Z"/><path class="cls-1" d="M17.44,17.73c-1.63,4.98-1.26,13.34-5.69,13.73-3.37,.3-3.11-8.1-5.04-12.22-.79-1.7-.65-4.28-2.69-4.89-1.44,5.77,.75,12.09-2.67,20.9C-.3,22.49-.46,12.39,.99,2.82c.65-4.26,3.71-1.29,4.75,1.9,2,6.11,3.84,12.32,6.08,19.53,1.63-3.85,2.78-6.58,3.93-9.3,1.2,.2,1.35,1.59,1.68,2.78Z"/><path class="cls-4" d="M17.44,17.73c-.56-.93-1.12-1.86-1.68-2.78,1.35-5.13,1.37-14.17,5.81-13.21,4.8,1.04,1.75,9.6,2.15,14.77,.41,5.3-.15,10.75-.28,16.13-.86,0-1.71,0-2.57,0-.14-5.31,.46-10.91-.6-15.85-1.23-5.77-1.77,.92-2.84,.95Z"/><path class="cls-2" d="M87.23,28.66c-4.35,7.32-9.18,4.04-13.99,1.19-3.26-9.39-1.87-18.93-.6-28.57,3.3,4.58,1.93,10.28,2.12,15.49,.41,11.44,2.74,13.59,10.68,9.35,1.03,.27,1.63,1.1,1.79,2.54Z"/><path class="cls-7" d="M66.09,32.62c-3.41,.47-4.4-3.72-6.31-6.15-.4-1.36-.8-2.72-1.2-4.08-.54-2.25,.2-2.83,1.69-2.44,3.36,1.82,2.49-1.82,2.69-3.97,.44-4.85-.92-9.99,2.2-14.68,1.77,10.28,1.4,20.79,.94,31.31Z"/><path class="cls-7" d="M53.96,13.42c-2.25-2.61-2.96-1.44-2.91,2.12,.07,5.49,.02,10.99,.02,16.48-1.07,.03-2.14,.05-3.21,.08,0-9.48-.29-18.98,.14-28.42,.17-3.8,2.59-2.87,3.9-.69,1.46,2.43,2.5,5.34,3.72,8.04,.67,2.4-.16,2.84-1.67,2.39Z"/><path class="cls-6" d="M87.23,28.66c-.6-.85-1.19-1.69-1.79-2.54,.41-8.26,.83-16.52,1.24-24.78,.71,.02,1.42,.04,2.12,.05,1.89,8.17,1.05,16.62,.35,25.07-.64,.73-1.28,1.47-1.92,2.2Z"/><path class="cls-5" d="M53.96,13.42c.56-.8,1.11-1.59,1.67-2.39,2.08,2.45,3.63,5.42,4.64,8.92-.56,.81-1.13,1.63-1.69,2.44-2.24-2.32-3.69-5.4-4.62-8.97Z"/></g></svg>