<svg xmlns="http://www.w3.org/2000/svg" viewBox="0 0 53.86 53.86"><defs><style>.cls-1{fill:#fff;opacity:0.85;}</style></defs><title>new</title><g id="圖層_2" data-name="圖層 2"><path class="cls-1" d="M36.58,5.13C26.16.75,16.3,2,7.94,12.66,1.4,21,2.66,30.51,6,40.22c2.4,2.09,4.7,4.42,7.2,6.21,14.64,10.44,31.45,2.72,37.36-17C50.49,16.32,45.14,8.73,36.58,5.13Zm7,12.71c.92,1.73,2.85,4.46.7,6.25-1.89,1.57-4.68,1.86-6-1.91s-2.11-7.56-3.28-11.82C39.27,11,41.64,14.17,43.61,17.84Zm-34.84,5c.31-5.74,3.33-8.66,6.58-11.23.67-.53,1.43-.85,3.58-2.11-.71,2.92-.82,4.36-1.36,5.38-1.92,3.61-.86,11-6.51,9.93C10.13,24.59,8.65,25,8.77,22.8Zm1.34,12.86c-.91-1.75-2.83-4.6-.16-6.12,1.66-.93,4.29-1.69,5.47,1.9s2.15,7.27,3.53,12C14.59,42.63,12.09,39.48,10.11,35.66Zm10.64-15c.46-4.63,2.43-10.8,6.47-10.5,3.3.25,5.4,5.84,5.72,10.36.49,6.87-4,3-6.15,4.47C24.71,23.4,20.05,27.58,20.75,20.66ZM33,32.67c-.28,5-2.48,10.93-6.17,11-3.85.07-5.93-6.29-6.1-11-.25-7.06,4.61-1.09,6.09-4C29.18,30.52,33.38,26.28,33,32.67Zm12-1.1c-1,5.3-3.71,9.1-10,11.42,3.13-5.83,1-12.92,6.63-13.74C43,29.06,45.57,28.66,45,31.57Z"/></g></svg>