<svg id="圖層_1" data-name="圖層 1" xmlns="http://www.w3.org/2000/svg" viewBox="0 0 79.99 616.95"><defs><style>.cls-1{opacity:0.55;}.cls-2{fill:#fff;}</style></defs><title>目錄頁元件</title><g class="cls-1"><path class="cls-2" d="M8.81,23.1Q43,8.82,77.22,23.1l-.06-10.31Q43-2,8.86,12.79C8.84,16.23,8.82,19.66,8.81,23.1Z"/><path class="cls-2" d="M8.29,139.59a144.86,144.86,0,0,1,69.44,0l0-10.3a136.4,136.4,0,0,0-69.38,0Z"/><path class="cls-2" d="M8,254.68a456.13,456.13,0,0,1,69.94,0c0-3.43,0-6.87,0-10.3a381.55,381.55,0,0,0-69.92,0C8.05,247.81,8,251.25,8,254.68Z"/><path class="cls-2" d="M31,40.64a93.47,93.47,0,0,1,46.31,5.75c0-3.43,0-6.87,0-10.3q-23.12-9.18-46.24-6C31,33.62,31,37.13,31,40.64Z"/><path class="cls-2" d="M31,40.64a93.47,93.47,0,0,1,46.31,5.75c0-3.43,0-6.87,0-10.3q-23.12-9.18-46.24-6C31,33.62,31,37.13,31,40.64Z"/><path class="cls-2" d="M31,64.45a102.74,102.74,0,0,1,46.46,5.24c0-3.43,0-6.87,0-10.3A98.43,98.43,0,0,0,31,53.92C31,57.43,31,60.94,31,64.45Z"/><path class="cls-2" d="M31,88.26A113.79,113.79,0,0,1,77.56,93c0-3.43,0-6.87,0-10.3a108.45,108.45,0,0,0-46.54-5C31,81.24,31,84.75,31,88.26Z"/><path class="cls-2" d="M30.92,112.07a127.46,127.46,0,0,1,46.73,4.22c0-3.43,0-6.87,0-10.3a120.8,120.8,0,0,0-46.67-4.45C30.93,105.05,30.93,108.56,30.92,112.07Z"/><path class="cls-2" d="M30.87,158.26a166.58,166.58,0,0,1,46.93,3.23l0-10.31a155.46,155.46,0,0,0-46.89-3.45Q30.88,153,30.87,158.26Z"/><path class="cls-2" d="M30.87,158.26a166.58,166.58,0,0,1,46.93,3.23l0-10.31a155.46,155.46,0,0,0-46.89-3.45Q30.88,153,30.87,158.26Z"/><path class="cls-2" d="M30.85,182.07a198.12,198.12,0,0,1,47,2.71c0-3.43,0-6.87,0-10.3a183,183,0,0,0-47-2.94Z"/><path class="cls-2" d="M30.83,205.88a244.37,244.37,0,0,1,47.08,2.2c0-3.43,0-6.87,0-10.3a221.12,221.12,0,0,0-47-2.43Q30.84,200.62,30.83,205.88Z"/><path class="cls-2" d="M30.82,229.69A318.82,318.82,0,0,1,78,231.38c0-3.43,0-6.87,0-10.3a279.42,279.42,0,0,0-47.12-1.92Z"/><path class="cls-2" d="M8.05,371.18a390.64,390.64,0,0,0,69.92,0V360.87a466.52,466.52,0,0,1-69.94,0C8,364.31,8,367.74,8.05,371.18Z"/><path class="cls-2" d="M30.8,277.31Q54.4,277,78,278c0-3.43,0-6.87,0-10.3q-23.59-1.38-47.19-.9Z"/><path class="cls-2" d="M30.8,277.31Q54.4,277,78,278c0-3.43,0-6.87,0-10.3q-23.59-1.38-47.19-.9Z"/><path class="cls-2" d="M30.8,301.12q23.61-.08,47.21.16V291q-23.61-.59-47.21-.38Z"/><path class="cls-2" d="M30.8,324.93q23.61.19,47.21-.35V314.27q-23.61.19-47.21.13Z"/><path class="cls-2" d="M30.8,348.74q23.61.47,47.2-.86V337.57q-23.59,1-47.2.64Z"/><path class="cls-2" d="M8.32,487.67a136.62,136.62,0,0,0,69.38,0l0-10.3a145.11,145.11,0,0,1-69.44,0Z"/><path class="cls-2" d="M30.82,396.36a283.65,283.65,0,0,0,47.12-1.89c0-3.43,0-6.87,0-10.3a323.13,323.13,0,0,1-47.14,1.66Z"/><path class="cls-2" d="M30.82,396.36a283.65,283.65,0,0,0,47.12-1.89c0-3.43,0-6.87,0-10.3a323.13,323.13,0,0,1-47.14,1.66Z"/><path class="cls-2" d="M30.84,420.17a223.75,223.75,0,0,0,47.05-2.4l0-10.3a247.73,247.73,0,0,1-47.09,2.17Q30.85,414.91,30.84,420.17Z"/><path class="cls-2" d="M30.86,444a184.82,184.82,0,0,0,47-2.91c0-3.43,0-6.87,0-10.3a200.22,200.22,0,0,1-47,2.68C30.85,437,30.86,440.47,30.86,444Z"/><path class="cls-2" d="M30.88,467.79a156.74,156.74,0,0,0,46.89-3.42l0-10.3a168,168,0,0,1-46.93,3.19C30.87,460.77,30.88,464.28,30.88,467.79Z"/><path class="cls-2" d="M8.86,604.16q34.16,14.79,68.3,0l.06-10.3q-34.22,14.26-68.41,0C8.82,597.29,8.84,600.73,8.86,604.16Z"/><path class="cls-2" d="M30.94,515.42A121.19,121.19,0,0,0,77.61,511c0-3.44,0-6.87,0-10.31a127.46,127.46,0,0,1-46.73,4.22C30.93,508.39,30.93,511.9,30.94,515.42Z"/><path class="cls-2" d="M30.94,515.42A121.19,121.19,0,0,0,77.61,511c0-3.44,0-6.87,0-10.31a127.46,127.46,0,0,1-46.73,4.22C30.93,508.39,30.93,511.9,30.94,515.42Z"/><path class="cls-2" d="M31,539.23a108.6,108.6,0,0,0,46.54-5c0-3.44,0-6.87,0-10.31A113.62,113.62,0,0,1,31,528.69C31,532.2,31,535.71,31,539.23Z"/><path class="cls-2" d="M31,563a98.43,98.43,0,0,0,46.4-5.47c0-3.44,0-6.87,0-10.31A102.46,102.46,0,0,1,31,552.5C31,556,31,559.53,31,563Z"/><path class="cls-2" d="M31.05,586.85q23.12,3.2,46.24-6c0-3.44,0-6.87,0-10.31A93.59,93.59,0,0,1,31,576.32C31,579.83,31,583.34,31.05,586.85Z"/></g></svg>