<svg id="圖層_1" data-name="圖層 1" xmlns="http://www.w3.org/2000/svg" viewBox="0 0 308.39 123.15"><defs><style>.cls-1{opacity:0.75;}.cls-2{fill:#d5bd55;}</style></defs><title>目錄頁元件</title><g class="cls-1"><path class="cls-2" d="M46.86,90.75A1.54,1.54,0,0,1,45.11,89V61a1.54,1.54,0,0,1,1.75-1.75H60A1.54,1.54,0,0,1,61.77,61v.48A1.54,1.54,0,0,1,60,63.26H50.85A1.54,1.54,0,0,0,49.1,65v7.46a1.54,1.54,0,0,0,1.75,1.75h8.77A1.54,1.54,0,0,1,61.38,76v.48a1.54,1.54,0,0,1-1.76,1.75H50.85A1.54,1.54,0,0,0,49.1,80v9a1.54,1.54,0,0,1-1.76,1.75Z"/><path class="cls-2" d="M76.38,89.88l-1.45-1.45a3,3,0,0,1-.88-2.15V73.56a3,3,0,0,1,.88-2.14L76.38,70a3,3,0,0,1,2.14-.88H84a3,3,0,0,1,2.15.88l1.4,1.4a3.15,3.15,0,0,1,.88,2.19V86.28a2.77,2.77,0,0,1-.88,2.19l-1.4,1.41a3,3,0,0,1-2.15.87H78.52A3,3,0,0,1,76.38,89.88ZM78,85a1.54,1.54,0,0,0,1.76,1.75h2.85A1.54,1.54,0,0,0,84.4,85V74.84a1.54,1.54,0,0,0-1.75-1.76H79.8A1.54,1.54,0,0,0,78,74.84Z"/><path class="cls-2" d="M102.86,90.75A1.54,1.54,0,0,1,101.11,89V61a1.54,1.54,0,0,1,1.75-1.76h.44A1.54,1.54,0,0,1,105.06,61V89a1.54,1.54,0,0,1-1.76,1.75Z"/><path class="cls-2" d="M119.53,90.75A1.54,1.54,0,0,1,117.77,89V61a1.54,1.54,0,0,1,1.76-1.76H120A1.54,1.54,0,0,1,121.72,61V89A1.54,1.54,0,0,1,120,90.75Z"/><path class="cls-2" d="M136.76,89.88l-1.45-1.45a3,3,0,0,1-.87-2.15V73.56a2.94,2.94,0,0,1,.87-2.14L136.76,70a3,3,0,0,1,2.15-.88h5.44a3,3,0,0,1,2.15.88l1.4,1.4a3.15,3.15,0,0,1,.88,2.19V86.28a2.84,2.84,0,0,1-.88,2.19l-1.4,1.41a3,3,0,0,1-2.15.87h-5.44A3,3,0,0,1,136.76,89.88ZM138.43,85a1.54,1.54,0,0,0,1.75,1.75H143A1.54,1.54,0,0,0,144.79,85V74.84A1.54,1.54,0,0,0,143,73.08h-2.85a1.54,1.54,0,0,0-1.75,1.76Z"/><path class="cls-2" d="M167.77,86.89l2.41-12.84a1.76,1.76,0,0,1,1.93-1.58H173a1.75,1.75,0,0,1,1.88,1.58l2.24,11.27a8.45,8.45,0,0,0,.39,1.57h.05l2.89-16.22a1.71,1.71,0,0,1,1.89-1.58h.48c1.05,0,1.62.57,1.62,1.45a1.61,1.61,0,0,1,0,.48l-3.6,18.24A1.75,1.75,0,0,1,179,90.84h-2.76a1.71,1.71,0,0,1-1.89-1.62l-1.14-7.5c-.13-.83-.31-1.23-.53-1.23s-.39.4-.52,1.19L171,89.22a1.71,1.71,0,0,1-1.89,1.62h-2.81a1.75,1.75,0,0,1-1.88-1.58L160.66,71a2,2,0,0,1,0-.53c0-.92.52-1.4,1.62-1.4h.48a1.74,1.74,0,0,1,1.93,1.58l2.63,14.65c.09.48.18.83.22,1.09a1,1,0,0,0,.18.48Z"/><path class="cls-2" d="M231.53,89.88l-1.45-1.45a3,3,0,0,1-.88-2.15V70.85A1.54,1.54,0,0,1,231,69.09h.48a1.54,1.54,0,0,1,1.76,1.76V85A1.54,1.54,0,0,0,235,86.76h2.81A1.54,1.54,0,0,0,239.51,85V70.85a1.54,1.54,0,0,1,1.75-1.76h.49a1.54,1.54,0,0,1,1.75,1.76V86.28a2.8,2.8,0,0,1-.88,2.19l-1.4,1.41a3,3,0,0,1-2.15.87h-5.39A3,3,0,0,1,231.53,89.88Z"/><path class="cls-2" d="M259,89.88l-1.45-1.45a3,3,0,0,1-.87-2.15v0a1.54,1.54,0,0,1,1.75-1.76h.48c1.1,0,1.76.44,1.76,1.14s.66,1.14,1.75,1.14h2.81A1.54,1.54,0,0,0,267,85V83.69a1.54,1.54,0,0,0-1.75-1.75h-4.12a3.08,3.08,0,0,1-2.15-.83L257.62,80a2.51,2.51,0,0,1-1-2.15v-4.3a2.76,2.76,0,0,1,.92-2.15L259,70a3,3,0,0,1,2.15-.88h5.35a3,3,0,0,1,2.19.88l1.41,1.4a3,3,0,0,1,.87,2.15v.09a1.54,1.54,0,0,1-1.75,1.75h-.48c-1.1,0-1.76-.44-1.76-1.18S266.31,73,265.21,73H262.4a1.54,1.54,0,0,0-1.75,1.75v1.8a1.54,1.54,0,0,0,1.75,1.75h4.08a3,3,0,0,1,2.15.88l1.45,1.45a3,3,0,0,1,.87,2.15v3.46a3,3,0,0,1-.87,2.15l-1.45,1.45a3,3,0,0,1-2.15.87h-5.35A3,3,0,0,1,259,89.88Z"/><polygon class="cls-2" points="308.39 89.87 308.39 111.9 297.15 123.14 212.92 123.14 212.92 121.08 245.51 121.08 250.1 114.65 291.64 114.65 304.72 101.11 304.72 89.87 308.39 89.87"/><polygon class="cls-2" points="140.45 0 137.07 5.69 150.41 5.69 153.78 9.6 178.32 9.6 180.28 5.87 195.92 5.87 190.06 0 140.45 0"/><polygon class="cls-2" points="1.59 48.93 25.5 24.29 45.8 24.29 49.78 20.66 79.13 20.66 91.45 9.43 93.26 11.24 79.13 26.82 29.13 26.82 4.49 51.83 1.59 48.93"/><polygon class="cls-2" points="98.83 17.84 104.17 27.5 114.08 27.5 109.51 17.84 98.83 17.84"/><polygon class="cls-2" points="112.17 17.84 117.51 27.5 127.42 27.5 122.85 17.84 112.17 17.84"/><polygon class="cls-2" points="125.52 17.84 130.85 27.5 140.76 27.5 136.19 17.84 125.52 17.84"/><polygon class="cls-2" points="139.24 17.84 144.58 27.5 154.49 27.5 149.91 17.84 139.24 17.84"/><polygon class="cls-2" points="234.16 17.84 228.82 27.5 218.91 27.5 223.49 17.84 234.16 17.84"/><polygon class="cls-2" points="220.82 17.84 215.48 27.5 205.57 27.5 210.14 17.84 220.82 17.84"/><polygon class="cls-2" points="207.47 17.84 202.14 27.5 192.23 27.5 196.8 17.84 207.47 17.84"/><polygon class="cls-2" points="193.75 17.84 188.41 27.5 178.5 27.5 183.08 17.84 193.75 17.84"/><polygon class="cls-2" points="154.49 17.84 178.5 17.84 166.5 33.02 154.49 17.84"/></g></svg>