<svg id="圖層_1" data-name="圖層 1" xmlns="http://www.w3.org/2000/svg" viewBox="0 0 88.7 624.46"><defs><style>.cls-1{opacity:0.55;}.cls-2{fill:#fff;}</style></defs><title>目錄頁元件</title><g class="cls-1"><path class="cls-2" d="M78.89,600.66q-34.61,14.43-69.19,0l.06,10.42q34.53,15,69.07,0Z"/><path class="cls-2" d="M79.41,482.84a146.61,146.61,0,0,1-70.23,0l0,10.42a138.13,138.13,0,0,0,70.17,0Z"/><path class="cls-2" d="M79.66,366.43a458.94,458.94,0,0,1-70.74,0c0,3.48,0,6.95,0,10.43a386.61,386.61,0,0,0,70.71,0C79.66,373.38,79.66,369.91,79.66,366.43Z"/><path class="cls-2" d="M56.41,582.91a94.55,94.55,0,0,1-46.84-5.82l.06,10.42q23.37,9.3,46.76,6C56.4,590,56.4,586.46,56.41,582.91Z"/><path class="cls-2" d="M56.41,582.91a94.55,94.55,0,0,1-46.84-5.82l.06,10.42q23.37,9.3,46.76,6C56.4,590,56.4,586.46,56.41,582.91Z"/><path class="cls-2" d="M56.45,558.83a103.67,103.67,0,0,1-47-5.3c0,3.47,0,7,0,10.42a99.46,99.46,0,0,0,46.92,5.53C56.44,565.93,56.44,562.38,56.45,558.83Z"/><path class="cls-2" d="M56.48,534.75A115,115,0,0,1,9.35,530c0,3.48,0,6.95.05,10.43a109.82,109.82,0,0,0,47.07,5C56.47,541.85,56.48,538.3,56.48,534.75Z"/><path class="cls-2" d="M56.52,510.67A129,129,0,0,1,9.26,506.4c0,3.47,0,7,0,10.42a122.17,122.17,0,0,0,47.2,4.5C56.51,517.77,56.51,514.22,56.52,510.67Z"/><path class="cls-2" d="M56.57,464a168.88,168.88,0,0,1-47.46-3.27l0,10.42a157.68,157.68,0,0,0,47.42,3.5C56.56,471.06,56.57,467.51,56.57,464Z"/><path class="cls-2" d="M56.57,464a168.88,168.88,0,0,1-47.46-3.27l0,10.42a157.68,157.68,0,0,0,47.42,3.5C56.56,471.06,56.57,467.51,56.57,464Z"/><path class="cls-2" d="M56.59,439.87a199.92,199.92,0,0,1-47.54-2.74c0,3.47,0,6.95,0,10.42a184.49,184.49,0,0,0,47.51,3Q56.6,445.2,56.59,439.87Z"/><path class="cls-2" d="M56.61,415.79A246,246,0,0,1,9,413.56L9,424a223.47,223.47,0,0,0,47.58,2.46C56.6,422.89,56.61,419.34,56.61,415.79Z"/><path class="cls-2" d="M56.62,391.71A322,322,0,0,1,9,390c0,3.47,0,6.95,0,10.42a283.56,283.56,0,0,0,47.65,1.94Z"/><path class="cls-2" d="M79.65,248.61a395.84,395.84,0,0,0-70.72,0c0,3.48,0,6.95,0,10.43a472,472,0,0,1,70.75,0C79.66,255.56,79.66,252.09,79.65,248.61Z"/><path class="cls-2" d="M56.64,343.55q-23.87.36-47.74-.68c0,3.47,0,6.95,0,10.42q23.87,1.4,47.73.91Z"/><path class="cls-2" d="M56.64,343.55q-23.87.36-47.74-.68c0,3.47,0,6.95,0,10.42q23.87,1.4,47.73.91Z"/><path class="cls-2" d="M56.64,319.47q-23.87.07-47.74-.16v10.42q23.87.6,47.74.39Z"/><path class="cls-2" d="M56.64,295.38q-23.87-.18-47.74.36,0,5.22,0,10.42,23.88-.2,47.75-.12Z"/><path class="cls-2" d="M56.64,271.3q-23.87-.46-47.73.88c0,3.47,0,6.95,0,10.42q23.88-1,47.74-.65Z"/><path class="cls-2" d="M79.38,130.79a138.13,138.13,0,0,0-70.17,0l0,10.43a146.36,146.36,0,0,1,70.23,0Z"/><path class="cls-2" d="M56.62,223.14A287.82,287.82,0,0,0,9,225.05c0,3.47,0,6.95,0,10.42a327.54,327.54,0,0,1,47.67-1.68Z"/><path class="cls-2" d="M56.62,223.14A287.82,287.82,0,0,0,9,225.05c0,3.47,0,6.95,0,10.42a327.54,327.54,0,0,1,47.67-1.68Z"/><path class="cls-2" d="M56.6,199.06A226.22,226.22,0,0,0,9,201.49c0,3.47,0,6.94,0,10.42a250,250,0,0,1,47.62-2.2Q56.61,204.39,56.6,199.06Z"/><path class="cls-2" d="M56.58,175a187.17,187.17,0,0,0-47.51,2.94l0,10.42a202.66,202.66,0,0,1,47.55-2.71Q56.59,180.31,56.58,175Z"/><path class="cls-2" d="M56.56,150.9a158.69,158.69,0,0,0-47.43,3.46l0,10.42a170.06,170.06,0,0,1,47.47-3.23C56.57,158,56.56,154.45,56.56,150.9Z"/><path class="cls-2" d="M78.83,13Q44.3-2,9.76,13L9.7,23.39Q44.29,9,78.89,23.39Z"/><path class="cls-2" d="M56.5,102.73a122.37,122.37,0,0,0-47.2,4.5c0,3.47,0,7,0,10.42a129,129,0,0,1,47.26-4.27C56.51,109.83,56.51,106.28,56.5,102.73Z"/><path class="cls-2" d="M56.5,102.73a122.37,122.37,0,0,0-47.2,4.5c0,3.47,0,7,0,10.42a129,129,0,0,1,47.26-4.27C56.51,109.83,56.51,106.28,56.5,102.73Z"/><path class="cls-2" d="M56.47,78.65a109.82,109.82,0,0,0-47.07,5c0,3.48,0,7-.05,10.43A115,115,0,0,1,56.48,89.3C56.48,85.75,56.47,82.2,56.47,78.65Z"/><path class="cls-2" d="M56.43,54.57A99.46,99.46,0,0,0,9.51,60.1q0,5.22,0,10.42a103.81,103.81,0,0,1,47-5.3C56.44,61.67,56.44,58.12,56.43,54.57Z"/><path class="cls-2" d="M56.39,30.49Q33,27.25,9.63,36.54L9.57,47a94.55,94.55,0,0,1,46.84-5.82C56.4,37.59,56.4,34,56.39,30.49Z"/></g></svg>