<svg id="圖層_1" data-name="圖層 1" xmlns="http://www.w3.org/2000/svg" viewBox="0 0 425.01 117.9"><defs><style>.cls-1{opacity:0.74;}.cls-2{fill:#fff;}</style></defs><title>目錄頁元件</title><g class="cls-1"><path class="cls-2" d="M240.17,99.76c-4,10.1-10.24,16.41-16.33,16.41H206.71c11.09,0,22.51-11.55,29.67-30l27.28-69.78C267.63,6.29,273.92,0,280,0h14.4c-11.1,0-19.78,11.54-27,30Z"/><path class="cls-2" d="M341.59,101.11c-3.19,10.14-9.42,16.48-16.19,16.48H312.25c12.33,0,19.2-11.6,24.94-30.14l22-70.12C362.35,7.18,368.59.87,375.37.87h16c-12.35,0-22.1,11.6-27.85,30.14Z"/><path class="cls-2" d="M407.52,39.48c-1,3.13-2.91,5.09-5,5.09H391.41c3.8,0,5.92-3.58,7.69-9.3l6.78-21.64c1-3.13,2.91-5.08,5-5.08h10c-3.81,0-4.8,3.58-6.58,9.3Z"/><path class="cls-2" d="M423.53,90.06c-2.9,0-3.67,2.74-5,7.11l-5.18,16.53a5.7,5.7,0,0,1-2.65,3.62,2.66,2.66,0,0,1-1.16.27h-11a6.09,6.09,0,0,1-5.82-7.87l15.15-49.55h8.19l-13.23,43.27a9.38,9.38,0,0,0,.84,7.38,1.76,1.76,0,0,0,3.21-.31v0l5.18-16.54c.76-2.39,2.23-3.88,3.83-3.88Z"/><path class="cls-2" d="M362.21,81.83c-1,3.13-2.91,5.09-5,5.09H346.1c3.8,0,5.92-3.58,7.7-9.3L360.57,56c1-3.14,2.91-5.08,5-5.08h10c-3.81,0-4.8,3.57-6.58,9.3Z"/><path class="cls-2" d="M295.52,95.49l12.4,11-8,7.14-9-7.94-3.51,7.87h-9.73l6.26-14-6.49-5.75a8.72,8.72,0,0,1-2-10.14l16.88-37.82h8.9L284.64,83a2.93,2.93,0,0,0,.68,3.42l3.22,2.85,19.57-43.85a3.66,3.66,0,0,0-3.3-5.25h-5.59a5.07,5.07,0,0,1-4.58-7.27L308.93.9h9.73L304.08,33.59A2.37,2.37,0,0,0,306.22,37h6.21a6,6,0,0,1,5.37,8.54Z"/><path class="cls-2" d="M238.32,94.12l23.6.4a7.56,7.56,0,0,0,7.16-4.75l2.86-7.1a3.86,3.86,0,0,0-3.53-5.3L252,77.09l-2.32,5.75L265,83.1a1.71,1.71,0,0,1,1.56,2.35l3-7c-.6,1.49-5.07,9.51-6.68,9.48l-18.07-.31,6.17-15.31,18.93.32a8.69,8.69,0,0,0,8.21-5.44L287,45.68a5.93,5.93,0,0,0-5.41-8.15l-20.19-.34L257.85,46l19.42.32a3.6,3.6,0,0,1,3.28,4.94l-5,11.89A4.58,4.58,0,0,1,271.26,66l-21.5-.37Z"/><path class="cls-2" d="M387.67,46.5l-19.31,64.74a9.39,9.39,0,0,1-9,6.66l-20.1-.31,6.89-3.88H354a4.75,4.75,0,0,0,4.54-3.37l17.92-60.21A3.64,3.64,0,0,0,373,45.44H357l2.72-8.93h20.5a7.74,7.74,0,0,1,7.41,10"/><polygon class="cls-2" points="379.19 67.29 333.42 67.29 334.72 64.43 380.49 64.43 379.19 67.29"/><polygon class="cls-2" points="420.93 52.1 378.18 52.1 379.48 49.24 422.23 49.24 420.93 52.1"/><polygon class="cls-2" points="378.78 117.59 370.59 117.59 388.14 60.17 396.33 60.17 378.78 117.59"/><polygon class="cls-2" points="395.04 64.39 411.62 64.39 412.91 60.17 396.33 60.17 395.04 64.39"/><path class="cls-2" d="M45,58.56a18.15,18.15,0,0,1-16,9.6H5.68A32.83,32.83,0,0,0,34.74,50.61L56.45,9.8a18.19,18.19,0,0,1,16-9.58H92.73C80.53.22,72.36,7,66.66,17.76Z"/><path class="cls-2" d="M138.64,52.75c-2.42,5.29-7.14,8.59-12.28,8.59H110.52c9.36,0,17.94-6.05,22.3-15.71L149.48,9.08C151.91,3.79,156.64.5,161.78.5h15.55c-9.37,0-17.65,6-22,15.71Z"/><path class="cls-2" d="M155.41,54.4c-2.17,4.74-6.4,7.7-11,7.7h-8.95c8.39,0,13.06-5.42,17-14.08l14.93-32.74c2.17-4.74,6.41-7.69,11-7.69h10.9c-8.39,0-15,5.41-18.93,14.07Z"/><polygon class="cls-2" points="107.13 115.81 18.4 115.81 23.75 104.84 112.49 104.84 107.13 115.81"/><polygon class="cls-2" points="97.27 89.91 37.41 89.91 41.02 82.28 100.88 82.28 97.27 89.91"/><polygon class="cls-2" points="105.41 70.87 45.55 70.87 49.16 63.23 109.02 63.23 105.41 70.87"/><path class="cls-2" d="M182.19,38.72l1.66-3.32-4.59,0,3.34-6.68c1.67-3.33.12-6.05-3.46-6.06l-23.78-.1L153.66,26l17,.07c2.07,0,3,1.58,2,3.52l-2.9,5.8L149,35.26l-1.66,3.32,20.74.08-3.9,7.81-20.84-.09-1.66,3.32,20.84.08-2.7,5.41a7,7,0,0,1-5.68,3.59l-16.87-.06-1.81,3.62,22.95.09c4,0,8.84-3,10.72-6.79L172,49.82l4.49,0,1.66-3.32-4.49,0,3.9-7.8Z"/><path class="cls-2" d="M144.17,85.5,156.68,61h-7.1l-11,22.92a24,24,0,0,0,.17,21.55l5.58,10.35,7.8-7.33-7.82-12.88a10.55,10.55,0,0,1-.18-10.13"/><path class="cls-2" d="M159.83,77.64,167.78,61h7.1l-10,20.85a52.93,52.93,0,0,1-18.15,21.19l-19.11,12.78-.79-7.33,15.29-10.22a51.49,51.49,0,0,0,17.68-20.65"/><polygon class="cls-2" points="174.05 78.95 133.09 78.95 134.77 75.44 175.73 75.44 174.05 78.95"/><path class="cls-2" d="M193.39,95.49l12.4,11-8,7.14-9-7.94-3.51,7.87h-9.73l6.26-14-6.49-5.75a8.72,8.72,0,0,1-2-10.14l16.88-37.82h8.9L182.51,83a2.93,2.93,0,0,0,.68,3.42l3.22,2.85L206,45.46a3.66,3.66,0,0,0-3.3-5.25h-5.59a5.07,5.07,0,0,1-4.58-7.27L206.8.9h9.73L202,33.59A2.38,2.38,0,0,0,204.1,37h6.2a6,6,0,0,1,5.37,8.54Z"/><path class="cls-2" d="M97.1,48.67l-32,62.61-14.83-.08L80.9,51.28a3.86,3.86,0,0,0-3.41-5.61l-31.94-.16,5.77-11.32,37.08.19a9.82,9.82,0,0,1,8.7,14.29"/></g></svg>