<svg xmlns="http://www.w3.org/2000/svg" viewBox="0 0 53.86 53.86"><defs><style>.cls-1{fill:#c2e2e4;}</style></defs><title>目錄頁元件</title><g id="圖層_2" data-name="圖層 2"><path class="cls-1" d="M44.53,9.17H9.8C8,7.71,6.43,7.64,5.24,10.39L2.06,14.51c-.14,1.27-.29,2.55-.44,3.83a42.92,42.92,0,0,0,0,17.27c.95,6.87,4.24,9,9,9.37a191.4,191.4,0,0,0,31.4.11c5.61-.48,10.21-1.08,10.81-11.28C53.83,16.78,52.74,12.49,44.53,9.17ZM22.77,33.86c-1-4.39-1.89-10.77.13-12.11,3.84-2.53,7.05,3.45,13.2,4.59C30.35,30.55,27,33.18,22.77,33.86Z"/></g></svg>